<svg xmlns="http://www.w3.org/2000/svg" width="52" height="52" viewBox="0 0 52 52">
  <g id="그룹_2656" data-name="그룹 2656" transform="translate(-10478 -2633)">
    <rect id="사각형_1967" data-name="사각형 1967" width="52" height="52" transform="translate(10478 2633)" fill="rgba(0,0,0,0)"/>
    <path id="paid_FILL0_wght400_GRAD0_opsz48" d="M27.187,46.937h3.438v-3.25a10.444,10.444,0,0,0,5.937-2.344,6.506,6.506,0,0,0,2.125-5.094,7.428,7.428,0,0,0-1.813-5.187A17.428,17.428,0,0,0,30.75,27.25a26.823,26.823,0,0,1-5.25-2.687,3.75,3.75,0,0,1-1.625-3.188,3.712,3.712,0,0,1,1.406-3.062,5.989,5.989,0,0,1,3.844-1.125,5.924,5.924,0,0,1,3.25.875,6.844,6.844,0,0,1,2.313,2.625l3-1.437a8.893,8.893,0,0,0-2.812-3.437,8.49,8.49,0,0,0-4.125-1.5V11.125H27.312v3.188a8.327,8.327,0,0,0-5.031,2.344,6.523,6.523,0,0,0-1.844,4.719,6.466,6.466,0,0,0,1.875,4.875,18.167,18.167,0,0,0,5.625,3.375,21.705,21.705,0,0,1,5.75,3.156A4.483,4.483,0,0,1,35.25,36.25a3.808,3.808,0,0,1-1.656,3.219,6.824,6.824,0,0,1-4.156,1.219,7.238,7.238,0,0,1-4.344-1.375,7.128,7.128,0,0,1-2.656-3.75L19.25,36.625a13.087,13.087,0,0,0,3.219,4.531,11.645,11.645,0,0,0,4.719,2.406ZM29,54a24.19,24.19,0,0,1-9.687-1.969A25.188,25.188,0,0,1,5.969,38.688a24.819,24.819,0,0,1,0-19.375A25.188,25.188,0,0,1,19.313,5.969a24.819,24.819,0,0,1,19.375,0A25.188,25.188,0,0,1,52.031,19.313a24.819,24.819,0,0,1,0,19.375A25.188,25.188,0,0,1,38.688,52.031,24.19,24.19,0,0,1,29,54Zm0-25Zm0,21.25A20.457,20.457,0,0,0,44,44a20.457,20.457,0,0,0,6.25-15A20.457,20.457,0,0,0,44,14,20.457,20.457,0,0,0,29,7.75,20.457,20.457,0,0,0,14,14,20.457,20.457,0,0,0,7.75,29,20.457,20.457,0,0,0,14,44,20.457,20.457,0,0,0,29,50.25Z" transform="translate(10475 2630)"/>
  </g>
</svg>
