<svg xmlns="http://www.w3.org/2000/svg" width="52" height="52" viewBox="0 0 52 52">
  <g id="그룹_2654" data-name="그룹 2654" transform="translate(-10664 -2633)">
    <rect id="사각형_1969" data-name="사각형 1969" width="52" height="52" transform="translate(10664 2633)" fill="rgba(0,0,0,0)"/>
    <path id="real_estate_agent_FILL0_wght400_GRAD0_opsz48" d="M47.19,36.754V16.811l-13-9.1-13,9.1V24.8H17.476V14.953L34.19,3,50.9,14.953v21.8Zm-13-29.047Zm1.238,12.634H37.9V17.864H35.429Zm-4.952,0h2.476V17.864H30.476ZM35.429,25.3H37.9V22.819H35.429Zm-4.952,0h2.476V22.819H30.476Zm4.086,29.6L15.31,49.388v3.53H2v-24.4H21.129l15.786,5.946a6.521,6.521,0,0,1,2.817,2.013,6.143,6.143,0,0,1,1.145,3.995h7.057a5.68,5.68,0,0,1,4.333,1.858A7.061,7.061,0,0,1,54,47.344v1.61ZM5.714,49.2h5.819V32.232H5.714Zm28.6,1.858,15.848-4.831a3.245,3.245,0,0,0-.929-1.61,2.056,2.056,0,0,0-1.3-.434H35.119a21.6,21.6,0,0,1-6.438-.929l-5.014-1.548,1.362-3.592L29.548,39.6a17.088,17.088,0,0,0,2.94.681,37.293,37.293,0,0,0,4.426.186,3.964,3.964,0,0,0-.279-1.455,1.8,1.8,0,0,0-.96-1.022L20.51,32.232h-5.2V45.486ZM11.533,40.717Zm25.381-.248ZM11.533,40.717Zm3.776,0Z" transform="translate(10662 2630)"/>
  </g>
</svg>
