<svg xmlns="http://www.w3.org/2000/svg" width="128.631" height="34.003" viewBox="0 0 128.631 34.003">
  <g id="그룹_601" data-name="그룹 601" transform="translate(0)">
    <path id="패스_3439" data-name="패스 3439" d="M228.026,13.215a2.364,2.364,0,0,0-2.893,1.863l-3.351,11.165-3.3-11.087A2.434,2.434,0,0,0,215.63,13.2a2.329,2.329,0,0,0-2.082,2.719l5.726,19.011v9.643a2.4,2.4,0,0,0,2.486,2.352,2.343,2.343,0,0,0,2.485-2.352V34.936l5.832-19.109a2.352,2.352,0,0,0-2.05-2.612" transform="translate(-123.084 -12.999)" fill="#00b0ac"/>
    <path id="패스_3440" data-name="패스 3440" d="M73.137,12.871c-4.126,0-7.609,3.04-7.609,6.642a2.569,2.569,0,0,0,2.754,2.321,2.542,2.542,0,0,0,2.662-2.321A2,2,0,0,1,73.137,17.6a2.072,2.072,0,0,1,2.2,1.916V27.82a8.51,8.51,0,0,0-2.2-.279c-4.2,0-7.609,2.98-7.609,6.641v6.113c0,3.618,3.412,6.562,7.609,6.562,4.145,0,7.518-2.944,7.518-6.562V19.513c0-3.664-3.372-6.642-7.518-6.642m2.2,27.424a2.125,2.125,0,0,1-2.2,1.916,2.072,2.072,0,0,1-2.193-1.916V34.182a2,2,0,0,1,2.193-1.915,2.073,2.073,0,0,1,2.2,1.915Z" transform="translate(-43.32 -12.854)" fill="#00b0ac"/>
    <path id="패스_3441" data-name="패스 3441" d="M129.756,13.848a2.826,2.826,0,0,0-2.168-.978h-9.713a2.571,2.571,0,0,0-2.755,2.323,2.57,2.57,0,0,0,2.755,2.4h6.163l-8.8,26.394a2.311,2.311,0,0,0,.416,1.937,2.937,2.937,0,0,0,2.221.929h9.713a2.427,2.427,0,0,0,2.661-2.323,2.483,2.483,0,0,0-2.661-2.323h-6.163l8.8-26.4a2.229,2.229,0,0,0-.469-1.963" transform="translate(-70.024 -12.853)" fill="#00b0ac"/>
    <path id="패스_3442" data-name="패스 3442" d="M172.134,12.871c-4.123,0-7.607,3.04-7.607,6.642a2.568,2.568,0,0,0,2.752,2.321,2.542,2.542,0,0,0,2.662-2.321,2,2,0,0,1,2.193-1.916,2.071,2.071,0,0,1,2.2,1.916v8.306a8.468,8.468,0,0,0-2.2-.278c-4.194,0-7.607,2.98-7.607,6.641v6.113c0,3.618,3.413,6.562,7.607,6.562,4.145,0,7.518-2.944,7.518-6.562V19.513c0-3.664-3.372-6.642-7.518-6.642m2.2,27.424a2.124,2.124,0,0,1-2.2,1.916,2.071,2.071,0,0,1-2.193-1.916V34.182a2,2,0,0,1,2.193-1.915,2.072,2.072,0,0,1,2.2,1.915Z" transform="translate(-96.626 -12.854)" fill="#00b0ac"/>
    <path id="패스_3443" data-name="패스 3443" d="M270.941,12.871c-4.2,0-7.612,2.978-7.612,6.642V40.295c0,3.618,3.415,6.562,7.612,6.562,4.144,0,7.516-2.944,7.516-6.562V19.513c0-3.664-3.371-6.642-7.516-6.642m2.193,27.424a2.123,2.123,0,0,1-2.193,1.916,2.158,2.158,0,0,1-2.291-1.916V19.513a2.106,2.106,0,0,1,2.291-1.916,2.069,2.069,0,0,1,2.193,1.916Z" transform="translate(-149.825 -12.854)" fill="#00b0ac"/>
    <path id="패스_3444" data-name="패스 3444" d="M24.484,12.836H19.9a2.453,2.453,0,0,0-2.485,2.352v29.12A2.455,2.455,0,0,0,19.9,46.661h4.587a6.9,6.9,0,0,0,7.159-6.774V19.528a6.946,6.946,0,0,0-7.159-6.692m2.188,27.051a2.133,2.133,0,0,1-2.188,2.071h-2.1V17.541h2.1a2.121,2.121,0,0,1,2.188,1.987Z" transform="translate(-17.412 -12.836)" fill="#00b0ac"/>
  </g>
</svg>
