<svg id="kr_Dazayo_White_ci_m" xmlns="http://www.w3.org/2000/svg" width="129" height="34" viewBox="0 0 129 34">
  <rect id="사각형_1854" data-name="사각형 1854" width="129" height="34" fill="none"/>
  <g id="그룹_601" data-name="그룹 601" transform="translate(0.4 0.06)">
    <path id="패스_3439" data-name="패스 3439" d="M228.026,13.214a2.364,2.364,0,0,0-2.893,1.854L221.783,26.18l-3.3-11.034A2.433,2.433,0,0,0,215.63,13.2a2.32,2.32,0,0,0-2.082,2.705l5.726,18.92v9.6a2.391,2.391,0,0,0,2.486,2.341,2.338,2.338,0,0,0,2.485-2.341v-9.6l5.832-19.017a2.343,2.343,0,0,0-2.05-2.6" transform="translate(-123.423 -12.999)" fill="#d68868"/>
    <path id="패스_3440" data-name="패스 3440" d="M73.137,12.871c-4.126,0-7.609,3.026-7.609,6.61a2.565,2.565,0,0,0,2.754,2.31,2.538,2.538,0,0,0,2.662-2.31,2,2,0,0,1,2.193-1.907,2.068,2.068,0,0,1,2.2,1.907v8.267a8.549,8.549,0,0,0-2.2-.278c-4.2,0-7.609,2.966-7.609,6.609v6.083c0,3.6,3.412,6.531,7.609,6.531,4.145,0,7.518-2.93,7.518-6.531V19.481c0-3.646-3.372-6.61-7.518-6.61m2.2,27.292a2.122,2.122,0,0,1-2.2,1.907,2.068,2.068,0,0,1-2.193-1.907V34.08a2,2,0,0,1,2.193-1.906,2.07,2.07,0,0,1,2.2,1.906Z" transform="translate(-43.402 -12.854)" fill="#d68868"/>
    <path id="패스_3441" data-name="패스 3441" d="M129.756,13.843a2.832,2.832,0,0,0-2.168-.973h-9.713a2.566,2.566,0,0,0-2.755,2.312,2.566,2.566,0,0,0,2.755,2.392h6.163l-8.8,26.268a2.292,2.292,0,0,0,.416,1.928,2.944,2.944,0,0,0,2.221.924h9.713a2.423,2.423,0,0,0,2.661-2.312,2.479,2.479,0,0,0-2.661-2.312h-6.163l8.8-26.274a2.21,2.21,0,0,0-.469-1.953" transform="translate(-70.19 -12.853)" fill="#d68868"/>
    <path id="패스_3442" data-name="패스 3442" d="M172.134,12.871c-4.123,0-7.607,3.026-7.607,6.61a2.564,2.564,0,0,0,2.752,2.31,2.538,2.538,0,0,0,2.662-2.31,2,2,0,0,1,2.193-1.907,2.067,2.067,0,0,1,2.2,1.907v8.266a8.507,8.507,0,0,0-2.2-.277c-4.194,0-7.607,2.966-7.607,6.609v6.083c0,3.6,3.413,6.531,7.607,6.531,4.145,0,7.518-2.93,7.518-6.531V19.481c0-3.646-3.372-6.61-7.518-6.61m2.2,27.292a2.121,2.121,0,0,1-2.2,1.907,2.067,2.067,0,0,1-2.193-1.907V34.08a2,2,0,0,1,2.193-1.906,2.069,2.069,0,0,1,2.2,1.906Z" transform="translate(-96.876 -12.854)" fill="#d68868"/>
    <path id="패스_3443" data-name="패스 3443" d="M270.941,12.871c-4.2,0-7.612,2.964-7.612,6.61V40.163c0,3.6,3.415,6.531,7.612,6.531,4.144,0,7.516-2.93,7.516-6.531V19.481c0-3.646-3.371-6.61-7.516-6.61m2.193,27.292a2.12,2.12,0,0,1-2.193,1.907,2.154,2.154,0,0,1-2.291-1.907V19.481a2.1,2.1,0,0,1,2.291-1.907,2.066,2.066,0,0,1,2.193,1.907Z" transform="translate(-150.245 -12.854)" fill="#d68868"/>
    <path id="패스_3444" data-name="패스 3444" d="M24.484,12.836H19.9a2.448,2.448,0,0,0-2.485,2.341v28.98A2.45,2.45,0,0,0,19.9,46.5h4.587a6.885,6.885,0,0,0,7.159-6.741V19.5a6.931,6.931,0,0,0-7.159-6.66m2.188,26.921a2.129,2.129,0,0,1-2.188,2.061h-2.1v-24.3h2.1A2.117,2.117,0,0,1,26.672,19.5Z" transform="translate(-17.412 -12.836)" fill="#d68868"/>
  </g>
</svg>
