<svg xmlns="http://www.w3.org/2000/svg" xmlns:xlink="http://www.w3.org/1999/xlink" width="40.011" height="40" viewBox="0 0 40.011 40">
  <defs>
    <radialGradient id="radial-gradient" cx="0.266" cy="1.077" r="0.991" gradientTransform="translate(-2.918 5.666) rotate(-90) scale(1 0.93)" gradientUnits="objectBoundingBox">
      <stop offset="0" stop-color="#fd5"/>
      <stop offset="0.1" stop-color="#fd5"/>
      <stop offset="0.5" stop-color="#ff543e"/>
      <stop offset="1" stop-color="#c837ab"/>
    </radialGradient>
  </defs>
  <g id="Instagram_logo_2016" transform="translate(-1.001 -1)">
    <path id="패스_3450" data-name="패스 3450" d="M20.009,0C11.656,0,9.214.009,8.739.048A9.925,9.925,0,0,0,4.8,1.039,7.986,7.986,0,0,0,2.5,2.721,8.585,8.585,0,0,0,.181,7.587C.045,8.523.006,8.713,0,13.492c0,1.593,0,3.689,0,6.5,0,8.345.009,10.786.049,11.259A10.048,10.048,0,0,0,1,35.117a8.428,8.428,0,0,0,5.462,4.462,14.194,14.194,0,0,0,2.9.385c.5.022,5.545.037,10.6.037s10.105-.006,10.589-.031a13.667,13.667,0,0,0,3.009-.394A8.376,8.376,0,0,0,39.026,35.1a9.883,9.883,0,0,0,.943-3.79c.027-.345.038-5.84.038-11.327S40,9.014,39.968,8.669a9.772,9.772,0,0,0-.962-3.828,7.929,7.929,0,0,0-1.712-2.346A8.637,8.637,0,0,0,32.423.183C31.488.048,31.3.008,26.52,0Z" transform="translate(1.004 1)" fill="url(#radial-gradient)"/>
    <path id="패스_3451" data-name="패스 3451" d="M20.009,0C11.656,0,9.214.009,8.739.048A9.925,9.925,0,0,0,4.8,1.039,7.986,7.986,0,0,0,2.5,2.721,8.585,8.585,0,0,0,.181,7.587C.045,8.523.006,8.713,0,13.492c0,1.593,0,3.689,0,6.5,0,8.345.009,10.786.049,11.259A10.048,10.048,0,0,0,1,35.117a8.428,8.428,0,0,0,5.462,4.462,14.194,14.194,0,0,0,2.9.385c.5.022,5.545.037,10.6.037s10.105-.006,10.589-.031a13.667,13.667,0,0,0,3.009-.394A8.376,8.376,0,0,0,39.026,35.1a9.883,9.883,0,0,0,.943-3.79c.027-.345.038-5.84.038-11.327S40,9.014,39.968,8.669a9.772,9.772,0,0,0-.962-3.828,7.929,7.929,0,0,0-1.712-2.346A8.637,8.637,0,0,0,32.423.183C31.488.048,31.3.008,26.52,0Z" transform="translate(1.004 1)" fill="#fff"/>
    <path id="패스_3452" data-name="패스 3452" d="M32.772,18c-4.011,0-4.515.018-6.09.089a10.839,10.839,0,0,0-3.585.686,7.556,7.556,0,0,0-4.321,4.319,10.789,10.789,0,0,0-.686,3.585C18.018,28.255,18,28.759,18,32.77s.018,4.513.089,6.089a10.855,10.855,0,0,0,.686,3.585,7.559,7.559,0,0,0,4.319,4.321,10.848,10.848,0,0,0,3.586.686c1.576.072,2.079.089,6.09.089s4.514-.018,6.089-.089a10.855,10.855,0,0,0,3.587-.686,7.568,7.568,0,0,0,4.319-4.321,10.948,10.948,0,0,0,.686-3.585c.071-1.576.089-2.078.089-6.089s-.018-4.515-.089-6.09a10.943,10.943,0,0,0-.686-3.585,7.557,7.557,0,0,0-4.32-4.32,10.873,10.873,0,0,0-3.588-.686C37.281,18.018,36.78,18,32.767,18Zm-1.325,2.662h1.325c3.944,0,4.411.014,5.969.085a8.178,8.178,0,0,1,2.742.509,4.894,4.894,0,0,1,2.8,2.8,8.161,8.161,0,0,1,.509,2.742c.071,1.557.086,2.025.086,5.967s-.015,4.41-.086,5.967a8.169,8.169,0,0,1-.509,2.742,4.9,4.9,0,0,1-2.8,2.8,8.148,8.148,0,0,1-2.742.509c-1.557.071-2.025.086-5.969.086s-4.411-.015-5.969-.086a8.193,8.193,0,0,1-2.743-.509,4.894,4.894,0,0,1-2.8-2.8,8.161,8.161,0,0,1-.509-2.742c-.071-1.557-.085-2.025-.085-5.969s.014-4.41.085-5.967a8.178,8.178,0,0,1,.509-2.742,4.895,4.895,0,0,1,2.8-2.8,8.16,8.16,0,0,1,2.743-.509c1.363-.062,1.891-.08,4.643-.083Zm9.209,2.453a1.772,1.772,0,1,0,1.772,1.772,1.772,1.772,0,0,0-1.772-1.772Zm-7.884,2.071a7.584,7.584,0,1,0,7.584,7.585,7.586,7.586,0,0,0-7.584-7.585Zm0,2.662a4.923,4.923,0,1,1-4.923,4.923A4.924,4.924,0,0,1,32.772,27.847Z" transform="translate(-11.768 -11.769)" fill="#363636"/>
  </g>
</svg>
