<svg xmlns="http://www.w3.org/2000/svg" width="41.867" height="42" viewBox="0 0 41.867 42">
  <g id="Facebook_f_logo__2019_" data-name="Facebook_f_logo_(2019)" transform="translate(0 -1.428)">
    <path id="패스_3456" data-name="패스 3456" d="M20.933,0A20.933,20.933,0,1,1,0,20.933,20.933,20.933,0,0,1,20.933,0Z" transform="translate(0 1.428)" fill="#fff"/>
    <path id="패스_3449" data-name="패스 3449" d="M4210.833,2796.921l.932-6.087h-5.838v-3.951c0-1.664.813-3.289,3.432-3.289h2.655v-5.182a32.4,32.4,0,0,0-4.714-.411c-4.809,0-7.953,2.913-7.953,8.193v4.64H4194v6.087h5.347v14.713a21.091,21.091,0,0,0,3.29.254,21.512,21.512,0,0,0,3.29-.254v-14.713Z" transform="translate(-4181.582 -2768.46)" fill="#363636"/>
  </g>
</svg>
